# xmcd
# 
# Track frame offsets:
#     150
#     12808
#     25617
#     45578
#     66114
#     79638
#     95285
#     113143
#     129295
#     148057
#     163011
#     176654
#     188994
#     201216
#     217803
#     232067
#     246447
#     257730
#     273074
#     289085
# 
# Disc length: 4037
# 
# Revision: 0
# Processed by: cddbd v1.5.2PL0 Copyright (c) Steve Scherf et al.
# Submitted via: fre:ac v1.0.17
# 
DISCID=140fc314
DTITLE=Various Artist - La selection officielle des fans de country Vol.2 - CD1
DYEAR=2008
DGENRE=Country
TTITLE0=Country - Aaron Watson - Heyday Tonight
TTITLE1=Country - The Roys - Workin' Girl Blues
TTITLE2=Country - Tim McGraw - Last Dollar (Fly Away)
TTITLE3=Country - Moot Davis - Deeper In You Love
TTITLE4=Country - Joe Nichols - Another Side Of You
TTITLE5=Country - Gary Allan - Tryin To Matter
TTITLE6=Country - Phil Vassar - Love Is A Beautiful Thing
TTITLE7=Country - Trisha Yearwood - Nothin' To Lose
TTITLE8=Country - Walt Wilkins and The Mystiqueros - Quiet Moon
TTITLE9=Country - Rod Picott - No Love In This Town
TTITLE10=Country - Doug Adkins - Windows Shoppin'
TTITLE11=Country - Cerrito - Hot Pepper Doll
TTITLE12=Country - Robert Mizzell - Who's Gonna Dance With Sally Ann ?
TTITLE13=Country - Eleven Hundred Springs - The Only Thing She Left Me Was The Blues
TTITLE14=Country - Corb Lund - I Want To Be In The Cavalry
TTITLE15=Country - Joey Martin - Cheater, Cheater
TTITLE16=Country - Bradley Walker - Life Or Love
TTITLE17=Country - Jennifer Hanson - Joyride
TTITLE18=Country - Rodney Atkins - These Are My People
TTITLE19=Country - Van Preston - Bought Myself A Toy
EXTD=
EXTT0=
EXTT1=
EXTT2=
EXTT3=
EXTT4=
EXTT5=
EXTT6=
EXTT7=
EXTT8=
EXTT9=
EXTT10=
EXTT11=
EXTT12=
EXTT13=
EXTT14=
EXTT15=
EXTT16=
EXTT17=
EXTT18=
EXTT19=
PLAYORDER=
